<svg id="Capa_1" data-name="Capa 1" xmlns="http://www.w3.org/2000/svg" viewBox="0 0 562.21 399"><defs><style>.cls-1{fill:#fff;}</style></defs><title>behance</title><path class="cls-1" d="M235.29,198.17c10.62-5.34,18.65-11.29,24.16-17.73,9.79-11.58,14.62-26.94,14.62-46,0-18.53-4.83-34.37-14.49-47.65q-24.19-32.44-82-33.28H24.66v312.1H167.22a223.38,223.38,0,0,0,44.71-4.19q20.64-4.28,35.74-15.68a86.56,86.56,0,0,0,22.4-24.55q14.12-22,14.11-49.76,0-26.88-12.32-45.73T235.29,198.17ZM87.74,107.74H156.6q22.71,0,37.41,4.86c11.33,4.71,17,14.28,17,28.87,0,13.09-4.32,22.24-12.86,27.39s-19.78,7.74-33.48,7.74H87.74ZM196.63,306c-7.61,3.68-18.33,5.5-32.06,5.5H87.74V228.25h77.88c13.57.1,24.13,1.89,31.68,5.25q20.16,9.12,20.13,33.5C217.43,286.2,210.52,299.13,196.63,306Z"/><rect class="cls-1" x="351.83" y="68.09" width="135.58" height="38.85"/><path class="cls-1" d="M534.52,221.4q-4.23-27.12-18.69-47.71-15.89-23.33-40.38-34.14t-55-10.82q-51.41,0-83.65,32t-32.22,92q0,64,35.74,92.39t82.4,28.38q56.6,0,88-33.63,20.12-21.21,22.66-41.73H470.9A50.28,50.28,0,0,1,458.3,314q-13.07,10.56-33.92,10.56c-13.22,0-24.42-2.91-33.76-8.7-15.43-9.28-23.49-25.54-24.52-48.67H536.57C536.82,247.29,536.18,232,534.52,221.4Zm-166.88,6Q371,204.88,384,191.68c8.64-8.77,20.86-13.19,36.51-13.22,14.43,0,26.5,4.13,36.32,12.42s15.17,20.48,16.29,36.51Z"/></svg>