<svg id="Capa_1" data-name="Capa 1" xmlns="http://www.w3.org/2000/svg" viewBox="0 0 398.97 398.97"><defs><style>.cls-1{fill:#030104;}</style></defs><title>biographyicon</title><path class="cls-1" d="M389.82,104.24a10.62,10.62,0,0,0-12.72,8,68.47,68.47,0,0,1-3.36,9.14,19.79,19.79,0,0,0-4.65-.54,21,21,0,0,0-6.78,1.22l-88-88a18.58,18.58,0,0,0,.42-3.66,19.1,19.1,0,0,0-.42-3.72,76.1,76.1,0,0,1,12.5-4.83A10.63,10.63,0,0,0,282,1.15c-.32.08-9.64,2.39-22.11,9.48a21.09,21.09,0,0,0-6-1A20.8,20.8,0,0,0,233.12,30.4c0,.29.08.52.08.78-11.72,11.93-23,28.32-30.63,50.58a20.6,20.6,0,0,0-7.2,30.19c-2.83,19.15-3.25,41.44,0,67.5L197.92,201a256.63,256.63,0,0,1-1.75,63.6,22.87,22.87,0,0,0-3.81,1l-59.19-59.16a20.12,20.12,0,0,0,1-3.71,327.88,327.88,0,0,1,46-2.83V178.67A258.12,258.12,0,0,0,127,183.6a20.6,20.6,0,0,0-32.83,9,215.71,215.71,0,0,0-46.9,23.17,19.88,19.88,0,0,0-2.47-.23,20.71,20.71,0,0,0-20.52,18.06c-13.95,12.6-21.07,22.75-21.82,24a10.62,10.62,0,0,0,1.61,12.94,14.68,14.68,0,0,0,2.05,1.63,10.72,10.72,0,0,0,14.63-3.64A106.09,106.09,0,0,1,33,253.31a20.14,20.14,0,0,0,7.25,3.19l105,104.93a20.82,20.82,0,0,0,.57,4.68,108.45,108.45,0,0,1-15.17,12.18,10.69,10.69,0,0,0-3.72,14.6A9.91,9.91,0,0,0,128.5,395a10.61,10.61,0,0,0,13,1.61c1.12-.6,8.94-5.56,19.15-15.25a19.68,19.68,0,0,0,5.3.78,20.78,20.78,0,0,0,20.78-20.78,21.18,21.18,0,0,0-1.87-8.6,197.11,197.11,0,0,0,23.88-49,20.61,20.61,0,0,0,7.84-30.52c3.67-20.29,5.07-43.39,3-69.6,0,0-1.43-21.62-2.34-21.72-3.25-22.66-3.56-42.06-1.9-58.85L276,183.65c-12.11,1.23-34.45,1.43-49.52.21l10.11,21.85a221.66,221.66,0,0,0,49.93-3.58,20.64,20.64,0,0,0,31.9-8.94,147.35,147.35,0,0,0,48.66-31c.7.05,1.4.21,2.11.21a20.78,20.78,0,0,0,20.75-20.76,20.29,20.29,0,0,0-1.09-6.44A99.39,99.39,0,0,0,397.9,117,10.7,10.7,0,0,0,389.82,104.24ZM168.9,340.8,65.47,237.41c0-.39.11-.73.11-1.12A21.19,21.19,0,0,0,65,231.4a172.9,172.9,0,0,1,33.83-17.53,20.71,20.71,0,0,0,14.94,6.39c.2,0,.41-.08.59-.08l64.46,64.51c0,.13,0,.28,0,.41a20.77,20.77,0,0,0,13,19.25,176.56,176.56,0,0,1-19.3,37.31A23.33,23.33,0,0,0,168.9,340.8ZM232.75,96.13a20.13,20.13,0,0,0-3.92-8.63,111.57,111.57,0,0,1,20.68-36.78,23,23,0,0,0,4.42.49,19.2,19.2,0,0,0,4.47-.52l90,90c0,.29-.1.57-.1.88a20.52,20.52,0,0,0,5.4,13.82,114.32,114.32,0,0,1-36.47,20.53,20.79,20.79,0,0,0-15.41-10.76Z"/></svg>