<svg id="Capa_1" data-name="Capa 1" xmlns="http://www.w3.org/2000/svg" viewBox="0 0 398.97 398.97"><title>education</title><g id="Layer_5" data-name="Layer 5"><path d="M225.09,276.59a51.94,51.94,0,0,1-51.21,0L58,205.48s-10.47-6.41-10.47,8.12v71c0,37.4,68.06,77.72,152,77.72s152-40.32,152-77.72v-75c0-11.67-7.44-6-7.44-6Z"/><path d="M392.29,148.93c8.91-5.47,8.91-14.41,0-19.87L215.68,40.75c-8.91-5.47-23.48-5.47-32.39,0L6.68,129.06c-8.91,5.46-8.91,14.4,0,19.87L183.29,257.24c8.91,5.47,23.48,5.47,32.39,0"/><path d="M385,309.48V189.85s.09-5.67-3.27-3.79c-2.7,1.5-9.31,5.18-11.64,7.21-2.69,2.33-2.08,7.58-2.08,7.58V309.48a3.21,3.21,0,0,1-2,2.65,20.66,20.66,0,1,0,20.84-.05A3.06,3.06,0,0,1,385,309.48Z"/></g></svg>