<svg id="Capa_1" data-name="Capa 1" xmlns="http://www.w3.org/2000/svg" viewBox="0 0 562.21 399"><defs><style>.cls-1{fill:#fff;}</style></defs><title>linkedin</title><rect class="cls-1" x="92.16" y="132.8" width="80.16" height="240.73"/><path class="cls-1" d="M435.4,154.79q-25.26-27.57-66.8-27.57A96.36,96.36,0,0,0,340.78,131a63.18,63.18,0,0,0-21.13,10.57,103,103,0,0,0-13.73,12.63A104.22,104.22,0,0,0,296.45,167V132.8H216.53l.24,11.66q.25,11.67.25,71.9t-.49,157.17h79.92V239.2q0-12.39,2.67-19.68a51.61,51.61,0,0,1,15.43-20.77q10.32-8.38,25.63-8.38,20.88,0,30.73,14.45t9.84,40V373.53h79.92v-138Q460.66,182.36,435.4,154.79Z"/><path class="cls-1" d="M132.72,16.93q-20.16,0-32.67,11.78T87.54,58.47q0,17.73,12.15,29.63T131.75,100h.49q20.4,0,32.91-11.9t12.27-29.63q-.24-18-12.39-29.76T132.72,16.93Z"/></svg>