<svg xmlns="http://www.w3.org/2000/svg" viewBox="0 0 414.35 258.13"><defs><style>.cls-1{fill:#b46c79;}</style></defs><title>Asset 1</title><g id="Layer_2" data-name="Layer 2"><g id="Capa_1" data-name="Capa 1"><path class="cls-1" d="M189.11,114.51h.26a5.71,5.71,0,0,0-.76-.23l.37.21Z"/><path class="cls-1" d="M336.07,113.49l-.06,0,0,0Z"/><path class="cls-1" d="M312.87,40.31a1.29,1.29,0,0,0,.66.45l-.07-.07A5.13,5.13,0,0,1,312.87,40.31Z"/><path class="cls-1" d="M183.55,106.56v0c.1-1.21-.05-1.14-.07-.69A4.91,4.91,0,0,1,183.55,106.56Z"/><path class="cls-1" d="M414,94.62c-1.17-3.62-5.28-6.66-9.23-5.24-8.24,3-16.22,6.64-24.21,10.23-1.83.82-3.66,1.64-5.5,2.44l-2.78,1.21-1.05.45-1.21.5c-4,1.65-8,3.19-12.1,4.55a114,114,0,0,1-12.86,3.48q-1.51.32-3,.57c-.57.1-1.14.17-1.7.28l-.18,0-.22,0c-.91.11-1.83.22-2.75.29l-1.14.06.25.15-.2,0h0a.61.61,0,0,1-.07-.1h0l-.06-.07.06,0-.05-.07c-.16-.26-.29-.53-.44-.8a29.79,29.79,0,0,1-1-3.74l-.07-.41c0-.2,0-.39-.05-.45-.07-.82-.12-1.63-.15-2.45-.22-6,.87-12,1.37-18a173.8,173.8,0,0,0,.64-19.76c-.39-12.7-2.16-28.4-12-37.58a18,18,0,0,0-8.38-4.79,21.53,21.53,0,0,0-9.9.39,37.76,37.76,0,0,0-7.11,2.69c1.54-4,3.05-8.07,4.5-12.13,1.26-3.52-1.14-7.5-4.34-8.85-3.72-1.57-7.05.06-9.37,3.07l-3.15,4.1-.12.15-.72.94-1.74,2.25q-3.52,4.53-7.08,9Q269.5,36.36,262,45.5C251.88,57.85,241.5,70,230.55,81.68c-4.88,5.19-9.87,10.29-15.08,15.16q-3.5,3.28-7.15,6.4c-1,.89-2.11,1.76-3.18,2.62l-.78.62c-.4.32-.44.38-.34.32l-1,.71a70.86,70.86,0,0,1-6,4c-.87.51-1.76,1-2.66,1.46l-1.23.58a25.17,25.17,0,0,1-2.55.81l-.64.13h-.5l.17.06h-.07l-.36-.07H189l0,0h-.06c-.15,0-.29-.11-.43-.14-.33-.07-.3,0-.13.08-.27-.1-.26-.25.25-.14-.44-.24-.87-.49-1.29-.77l-.21-.14-.29-.28c-.45-.41-.85-.85-1.26-1.3-.2-.33-.41-.64-.61-1-.44-.77-.82-2.49-.29-.38-.17-.65-.48-1.29-.66-1.94s-.32-1.26-.44-1.9c0,.05,0,.1,0,.15v-.19a.44.44,0,0,1,0-.1,2.19,2.19,0,0,1,0-.55c0-.16,0-.32-.05-.47a33.58,33.58,0,0,1,.05-4.81c0-.39.07-.78.11-1.17.32-.34.36-2.21.45-2.68a79.93,79.93,0,0,1,3.08-11q.92-2.61,2-5.16c.17-.43.35-.85.52-1.28.44-1,.88-2,1.34-3,1.53-3.39,3.18-6.73,4.88-10C199,60.23,202.31,54.26,205,48c2.94-6.83,6.09-14.61,4.4-22.18a12.79,12.79,0,0,0-8.09-9.33c-3.08-1-7.24-.31-10.34.17-12.76,1.95-24.19,10.06-34,17.91q-4.24,3.39-8.27,7c.75-5.68.1-11.3-3.09-16.27-3.66-5.69-10.41-10.47-17.28-10.79-6.57-.31-13.09,2.92-18.42,6.46-.85.56-1.69,1.15-2.53,1.74a21.18,21.18,0,0,0-6-16.12C96.56,1.8,89.7,0,83.07,0,72.38,0,62.26,3.83,52.58,7.94A203.35,203.35,0,0,0,2.19,39.14c-3,2.53-2.81,8,0,10.61,3.21,3,7.38,2.69,10.6,0q2.15-1.78,4.35-3.53l.41-.33,1-.75L21,43.31q4.89-3.59,10-6.89A195.3,195.3,0,0,1,52.53,24.33q2.79-1.33,5.62-2.57l.94-.41.61-.26c1.12-.46,2.25-.91,3.38-1.35,1.36-.53,2.73-1,4.11-1.53a89.27,89.27,0,0,1,11.34-2.88c.3-.05.76-.14,1-.16.59-.05,1.17-.1,1.76-.13a32.56,32.56,0,0,1,4,0l.56.05c.55.13,1.11.22,1.65.36.38.1.75.22,1.12.35l-.18-.13.23.14.42.14c.29.09.39.19.36.23l.09,0c.33.2.69.51,1,.73l.36.35.27.27c.17.26.36.53.52.81s.26.47.38.72a2,2,0,0,0,.14.27c.1.46.16,1,.22,1.19l0,.1c0,.32,0,.68,0,.77s-.07,1.18-.08,1.58c0,.08,0,.15,0,.2-.11.55-.24,1.1-.39,1.64-.21.75-.44,1.48-.71,2.21-.13.37-.28.73-.41,1.1a1.19,1.19,0,0,0-.08.16c-.84,1.68-1.66,3.34-2.6,5-1.77,3.06-3.74,6-5.71,8.94C77.71,49.34,73,56.45,68.33,63.55a412.07,412.07,0,0,0-32,47.38c-1,1.76-2,3.54-3,5.32-1.87,3.45-1,8.33,2.69,10.27a7.69,7.69,0,0,0,10.26-2.69l32.5-49,2.33-3.53c1.26-1.6,2.52-3.2,3.81-4.79q4.58-5.66,9.42-11.09a166,166,0,0,1,18.19-17.88l1.09-.89.09-.07.85-.64c.35-.26.7-.52,1.06-.77,1.33-1,2.7-1.86,4.11-2.69,1.2-.72,2.45-1.33,3.7-2l.53-.2c.59-.21,1.19-.39,1.79-.55.38-.1.78-.16,1.17-.24h0c.19,0,.37-.07.55-.12s-.08,0-.4,0a1.12,1.12,0,0,1,.65,0c-.46-.24-1.3-.66-.5-.27l.77.38a5.55,5.55,0,0,0,.81,0l-.68,0a22.94,22.94,0,0,1,2.42,1.35l.31.21c.33.29.68.57,1,.88s.43.46.64.7l.27.42c.18.3.34.61.5.92l.1.3a14.29,14.29,0,0,1,.37,1.43s0,.09,0,.13a25.42,25.42,0,0,1,0,3.38c0,.11,0,.23,0,.34-.11.62-.21,1.23-.35,1.84-.32,1.44-.74,2.86-1.2,4.26-.24.71-.49,1.41-.75,2.11-.14.39-.29.77-.45,1.16,0,.11-.15.37-.24.61s-.13.28-.16.35c-.18.42-.37.83-.56,1.25-.39.85-.8,1.71-1.22,2.55a214,214,0,0,1-14.31,24c-1.09,1.62-2.21,3.24-3.32,4.85Q101.4,95,92.41,107.92q-3.1,4.47-6.11,9c-2.17,3.28-.75,8.44,2.69,10.26,3.94,2.08,7.75.68,10.26-2.69,8.25-11,16.44-22.08,24.26-33.4.88-1.11,1.76-2.22,2.65-3.32q5.33-6.56,10.91-12.9a282.25,282.25,0,0,1,22.31-22.79q2.75-2.48,5.59-4.85,1.28-1.07,2.58-2.1c.18-.14,1.72-1.39.83-.66s.74-.56,1-.76a102.5,102.5,0,0,1,10.83-7.17c1.93-1.09,3.9-2.08,5.91-3l1.35-.52c.94-.34,1.89-.66,2.85-.94s1.84-.5,2.78-.69l1.19-.22.54,0a.61.61,0,0,1,0,.14c0,.23-.06.46-.1.65a43,43,0,0,1-1.91,6.48c-.17.47-.35.94-.54,1.4L191.82,41c-.15.33-.32.73-.37.85-.29.63-.57,1.26-.87,1.88-4,8.49-8.72,16.57-12.59,25.1-7.76,17.12-18,45,2.13,57.91,12.67,8.09,27.31-3.4,36.89-11.25,14.89-12.21,27.9-26.79,40.46-41.32q6.9-8,13.61-16.14c-.52,1.27-1,2.55-1.54,3.83-6.46,16.11-12.54,32.37-18.39,48.71-5,14.07-9.91,28.19-15,42.24q-3.72,10.3-7.64,20.53c-1.39,3.58-2.79,7.15-4.23,10.7-.65,1.64-1.32,3.27-2,4.9l-1.14,2.74c-.15.37-.3.74-.46,1.11l-.25.59c-6.65,15.69-13.91,31.1-21.65,46.28-1.26,2.43-2.5,4.88-3.77,7.31-1.82,3.47-1,8.31,2.69,10.26,3.45,1.83,8.32,1,10.26-2.69a870.51,870.51,0,0,0,41.57-91c10.41-27,19.41-54.59,29.07-81.89q4.22-11.91,8.58-23.77c.3-.76.61-1.52.92-2.28l.27-.38a49.93,49.93,0,0,1,4.6-4.6c1-.87,2-1.71,3-2.53.18-.15.37-.29.56-.43.53-.39,1.06-.79,1.6-1.17A57.76,57.76,0,0,1,305.51,42l1.39-.67.63-.25a31.91,31.91,0,0,1,3.59-1h1.28l.17,0,.3.23c-.06-.09-.09-.14-.08-.16h0a1.67,1.67,0,0,1,.35.28,3.2,3.2,0,0,0,.27.25c.09.05.16.09.19.08a.25.25,0,0,1-.12,0l.37.34c.37.36.7.74,1.06,1.11l-.15-.25a3.09,3.09,0,0,0,.26.37,2.26,2.26,0,0,1,.23.34,2.92,2.92,0,0,1,.21.28,27.08,27.08,0,0,1,1.87,3.27l.27.6c.25.72.55,1.42.78,2.15a55.53,55.53,0,0,1,2.08,8.92s0,.2.08.43,0,.2,0,.35c.09.77.18,1.53.25,2.31.16,1.74.28,3.49.35,5.24a164.74,164.74,0,0,1-.46,19.87c-.46,5.9-1.53,11.81-1.52,17.73,0,6.94,1.1,14.93,6.07,20.19a14.54,14.54,0,0,0,10.78,4.5,74.42,74.42,0,0,0,14-2c17.13-3.71,32.86-11.81,48.84-18.73l1.48-.64.13-.06.13,0c.78-.32,1.55-.65,2.33-1q2.88-1.16,5.79-2.21C412.47,102.52,415.34,98.68,414,94.62ZM78.51,15.34c-.4.08-.29.05,0,0Zm.12,0,.75-.15Zm13.24,3.27a1.61,1.61,0,0,1,.36.82C92.21,19.34,92.09,19.07,91.87,18.58Zm.54,1.58s.06.2.07.43A1.7,1.7,0,0,1,92.41,20.16Zm38.18,10.68.09.09A.38.38,0,0,1,130.59,30.84Zm59,83.78h0l.14,0Zm146.29-1.2.06.08h-.09C335.61,113.34,335.71,113.33,335.91,113.42Zm.66.62a1.82,1.82,0,0,0-.21-.21c.09,0,.1,0-.06-.09h.12C336.53,113.83,336.6,113.94,336.57,114Z"/><path class="cls-1" d="M315,42.24l0,0c.58,1,.57.82.34.46l-.23-.34Z"/><path class="cls-1" d="M88.59,15.84c.49.36.78.43.83.38-.24-.12-.54-.23-.78-.37Z"/><path class="cls-1" d="M128,29.52l-.18-.1h0l.22.11c-.2,0-.4,0-.59,0l-.43,0h0a2.85,2.85,0,0,0,1.2.07l-.13-.06Z"/></g></g></svg>