<svg id="Capa_1" data-name="Capa 1" xmlns="http://www.w3.org/2000/svg" viewBox="0 0 398.97 398.97"><title>portfolioicon</title><path d="M395.67,11c-2.1-2-5.15-3-9-3-31.09,0-115.2,61.74-185.87,133.86C160.48,183,139.91,211.82,131.9,232.6a96.21,96.21,0,0,1,18.57,8.65,78.79,78.79,0,0,1,13.66,10.28h0a75.53,75.53,0,0,1,18.11,26c20.56-9.17,48.41-30.31,87.25-69.92C349,126.57,414.65,29.15,395.67,11Z"/><path d="M141.79,251.85c-10.81-6.44-21-10.19-31-11.39a60.39,60.39,0,0,0-6.95-.41,61.13,61.13,0,0,0-22.8,4.54C52,256.29,49.12,283.84,46.61,308.15,43.49,338.41,40,357.28,9.38,363.82a11.85,11.85,0,0,0,.75,23.32,335.49,335.49,0,0,0,48.39,3.8h0c32.63,0,59.53-5.94,80-17.67,18.75-10.75,31.29-26,36.28-44.17a64.78,64.78,0,0,0,.95-30.17A71.83,71.83,0,0,0,141.79,251.85Z"/></svg>